<?xml version="1.0" encoding="UTF-8" standalone="no"?>
<!DOCTYPE svg PUBLIC "-//W3C//DTD SVG 1.1//EN"
 "http://www.w3.org/Graphics/SVG/1.1/DTD/svg11.dtd">
<!-- Generated by graphviz version 2.40.1 (20161225.0304)
 -->
<!-- Title: %3 Pages: 1 -->
<svg width="537pt" height="198pt"
 viewBox="0.00 0.00 537.00 198.00" xmlns="http://www.w3.org/2000/svg" xmlns:xlink="http://www.w3.org/1999/xlink">
<g id="graph0" class="graph" transform="scale(1 1) rotate(0) translate(36 162)">
<title>%3</title>
<polygon fill="#ffffff" stroke="transparent" points="-36,36 -36,-162 501,-162 501,36 -36,36"/>
<!-- Roles -->
<g id="node1" class="node">
<title>Roles</title>
<polygon fill="none" stroke="#000000" points="199.5,-84 199.5,-105 266.5,-105 266.5,-84 199.5,-84"/>
<text text-anchor="start" x="213" y="-91.8" font-family="Times,serif" font-style="italic" font-size="14.00" fill="#000000">Roles</text>
<polygon fill="none" stroke="#000000" points="199.5,-63 199.5,-84 266.5,-84 266.5,-63 199.5,-63"/>
<text text-anchor="start" x="226" y="-69.8" font-family="Times,serif" font-size="14.00" fill="#000000">id</text>
<polygon fill="none" stroke="#000000" points="199.5,-42 199.5,-63 266.5,-63 266.5,-42 199.5,-42"/>
<text text-anchor="start" x="202.5" y="-48.8" font-family="Times,serif" font-size="14.00" fill="#000000">grant_id</text>
<polygon fill="none" stroke="#000000" points="199.5,-21 199.5,-42 266.5,-42 266.5,-21 199.5,-21"/>
<text text-anchor="start" x="219" y="-27.8" font-family="Times,serif" font-size="14.00" fill="#000000">role</text>
</g>
<!-- Grants -->
<g id="node3" class="node">
<title>Grants</title>
<polygon fill="none" stroke="#000000" points="410.5,-63 410.5,-84 465.5,-84 465.5,-63 410.5,-63"/>
<text text-anchor="start" x="413.5" y="-70.8" font-family="Times,serif" font-style="italic" font-size="14.00" fill="#000000">Grants</text>
<polygon fill="none" stroke="#000000" points="410.5,-42 410.5,-63 465.5,-63 465.5,-42 410.5,-42"/>
<text text-anchor="start" x="431" y="-48.8" font-family="Times,serif" font-size="14.00" fill="#000000">id</text>
<polygon fill="none" stroke="#000000" points="410.5,-21 410.5,-42 465.5,-42 465.5,-21 410.5,-21"/>
<text text-anchor="start" x="418" y="-27.8" font-family="Times,serif" font-size="14.00" fill="#000000">name</text>
</g>
<!-- Roles&#45;&gt;Grants -->
<g id="edge2" class="edge">
<title>Roles:grant_id&#45;&gt;Grants:id</title>
<path fill="none" stroke="#000000" d="M266,-52C326.7101,-52 344.3776,-52 400.3799,-52"/>
<polygon fill="#000000" stroke="#000000" points="400.5,-55.5001 410.5,-52 400.5,-48.5001 400.5,-55.5001"/>
</g>
<!-- Users -->
<g id="node2" class="node">
<title>Users</title>
<polygon fill="none" stroke="#000000" points=".5,-105 .5,-126 55.5,-126 55.5,-105 .5,-105"/>
<text text-anchor="start" x="6.5" y="-112.8" font-family="Times,serif" font-style="italic" font-size="14.00" fill="#000000">Users</text>
<polygon fill="none" stroke="#000000" points=".5,-84 .5,-105 55.5,-105 55.5,-84 .5,-84"/>
<text text-anchor="start" x="21" y="-90.8" font-family="Times,serif" font-size="14.00" fill="#000000">id</text>
<polygon fill="none" stroke="#000000" points=".5,-63 .5,-84 55.5,-84 55.5,-63 .5,-63"/>
<text text-anchor="start" x="3.5" y="-69.8" font-family="Times,serif" font-size="14.00" fill="#000000">role_id</text>
<polygon fill="none" stroke="#000000" points=".5,-42 .5,-63 55.5,-63 55.5,-42 .5,-42"/>
<text text-anchor="start" x="8" y="-48.8" font-family="Times,serif" font-size="14.00" fill="#000000">name</text>
<polygon fill="none" stroke="#000000" points=".5,-21 .5,-42 55.5,-42 55.5,-21 .5,-21"/>
<text text-anchor="start" x="8" y="-27.8" font-family="Times,serif" font-size="14.00" fill="#000000">email</text>
<polygon fill="none" stroke="#000000" points=".5,0 .5,-21 55.5,-21 55.5,0 .5,0"/>
<text text-anchor="start" x="6" y="-6.8" font-family="Times,serif" font-size="14.00" fill="#000000">phone</text>
</g>
<!-- Users&#45;&gt;Roles -->
<g id="edge1" class="edge">
<title>Users:role_id&#45;&gt;Roles:id</title>
<path fill="none" stroke="#000000" d="M55,-74C115.7101,-74 133.3776,-74 189.3799,-74"/>
<polygon fill="#000000" stroke="#000000" points="189.5,-77.5001 199.5,-74 189.5,-70.5001 189.5,-77.5001"/>
</g>
</g>
</svg>
