<svg height="84" viewBox="0 0 552 84" width="552" xmlns="http://www.w3.org/2000/svg"><g fill="#ffe828" fill-rule="evenodd"><path d="m33.3322115 83.1141722c-3.0159879 0-5.6709245-1.7959137-6.7820121-4.5973564l-.0400242-.1071567-26.15829605-73.76910778c-.57534743-1.62230318.27850152-3.40201878 1.90656798-3.9747674 1.62764955-.57440996 3.41414502.27661391 3.98949245 1.89974776l26.13411482 73.69974662c.2230513.5175089.6349667.6176049.9664169.6188509.3210272-.0041533.7429486-.1204475.9522417-.6458478l24.293003-73.60837261c.5394925-1.63393259 2.3063928-2.52275205 3.9473837-1.98613769 1.6401571.5370297 2.5331964 2.29763984 1.9937039 3.93198777l-24.3484531 73.77159973c-1.0514683 2.8575131-3.7043203 4.7281873-6.7594985 4.7663982-.0316858.0004154-.0633716.0004154-.0946405.0004154"/><path d="m309.74913 83.0734692c-3.015988 0-5.670925-1.796329-6.782012-4.5977717l-.040024-.1071567-26.158296-73.76910777c-.575348-1.62188784.278501-3.40160344 1.906568-3.97435205 1.627649-.57357929 3.414145.2766139 3.989492 1.89933242l26.134115 73.6997466c.223051.5175089.64664.6246657.966834.6192663.32061-.0041534.742531-.1204475.951824-.6458478l24.293003-73.60878799c.539493-1.63351726 2.305559-2.52275205 3.947384-1.98613769 1.640574.53744504 2.533197 2.29763984 1.993704 3.9324031l-24.348453 73.77118448c-1.051468 2.857513-3.70432 4.7281872-6.759082 4.7659828-.031269.0004153-.063788.001246-.095057.001246"/><path d="m108.706894 66.0351325c-1.479643 0-2.794187-1.0503853-3.071438-2.5518256-.312689-1.6920797.810907-3.3160442 2.509849-3.627131 11.251378-2.0617289 19.417559-11.844973 19.417559-23.2629804v-6.1656658c0-13.0432179-10.651849-23.65464235-23.744338-23.65464235-6.3630094 0-12.3278613 2.46294364-16.8130698 6.93486845-4.4852085 4.4715095-6.9529486 10.4158011-6.9483625 16.737218l.0170936 6.1594358c.0087553 11.3141733 8.0890514 21.0741586 19.2132689 23.21314 1.6956068.3264543 2.8050268 1.9599715 2.4777458 3.6491438s-1.9653531 2.7939666-3.6630449 2.468343c-14.0589063-2.7038386-24.2709063-15.0347549-24.2817462-29.3194127l-.0170937-6.1598511c-.0058368-7.9927298 3.1114623-15.5024235 8.7782175-21.15182648 5.6667553-5.64981827 13.2025559-8.76110171 21.2198973-8.76110171 16.557915 0 30.015208 13.40622169 30.015208 29.88468529v6.1656658c0 14.4246261-10.320815 26.7850313-24.540652 29.3900199-.190949.0353036-.38148.0519171-.569094.0519171"/><path d="m225.25936 37.1630368c-1.621396 0-2.992641-1.2468393-3.115215-2.8832639-.021263-.2861666-.032103-.5748253-.032103-.8576692v-21.5974822c0-6.29774274 5.143523-11.42174539 11.465257-11.42174539h28.350453c1.727293 0 3.126888 1.39469895 3.126888 3.11502147 0 1.72073786-1.399595 3.11502147-3.126888 3.11502147h-28.350453c-2.873819 0-5.21148 2.32920538-5.21148 5.19170245v21.5974822c0 .1329076.00542.2641538.015009.3945694.128411 1.7157538-1.164036 3.2101334-2.88591 3.338057-.078797.0053993-.158012.0083067-.235558.0083067"/><path d="m261.927752 83.0672392h-28.350453c-6.321734 0-11.465257-5.1240027-11.465257-11.4217454v-21.5974822c0-6.2977427 5.143523-11.4217454 11.465257-11.4217454h28.350453c1.727293 0 3.126888 1.3942836 3.126888 3.1150215 0 1.7203225-1.399595 3.1150215-3.126888 3.1150215h-28.350453c-2.873819 0-5.21148 2.32879-5.21148 5.1917024v21.5974822c0 2.8624971 2.337661 5.1917024 5.21148 5.1917024h28.350453c1.727293 0 3.126888 1.3942836 3.126888 3.1150215s-1.399595 3.1150215-3.126888 3.1150215"/><path d="m167.505734 83.0655778h-15.292568c-1.727293 0-3.126888-1.3946989-3.126888-3.1150214 0-1.7207379 1.399595-3.1150215 3.126888-3.1150215h15.292568c19.396713 0 35.176659-15.7208904 35.176659-35.0439915 0-19.3231012-15.779946-35.04399156-35.176659-35.04399156h-11.197178c-.375644 0-.623293.19063931-.737529.30485677-.113819.11338678-.305184.36051181-.304767.73514506l.073794 62.19618003c.002085 1.7203225-1.396259 3.1166828-3.123136 3.1187595h-.003752c-1.725625 0-3.124803-1.392207-3.126888-3.1112835l-.073795-62.19701065c-.002084-1.94335806.75629-3.77083732 2.134206-5.14518479 1.378749-1.37476281 3.211522-2.13150536 5.161867-2.13150536h11.197178c22.844629 0 41.430435 18.5152723 41.430435 41.2740345s-18.585806 41.2740344-41.430435 41.2740344"/><path d="m361.740526 83.0792839c-1.725626 0-3.125638-1.3930376-3.126889-3.1125294l-.057534-76.31802602c-.000834-1.72073786 1.397927-3.11626748 3.124803-3.11751348h.002085c1.726042 0 3.126054 1.39345293 3.126888 3.11252945l.057535 76.31802595c.001251 1.7207379-1.397511 3.1162675-3.124387 3.1175135z"/><path d="m429.034079 83.0713925h-36.341529c-4.022846 0-7.295656-3.2608044-7.295656-7.2683834v-72.16466402c0-1.72032253 1.399595-3.11502147 3.126888-3.11502147 1.726877 0 3.126889 1.39469894 3.126889 3.11502147v72.16466402c0 .5723333.467365 1.0383405 1.041879 1.0383405h36.341529c1.727293 0 3.126888 1.3942836 3.126888 3.1150215 0 1.7203225-1.399595 3.1150214-3.126888 3.1150214"/><path d="m491.776967 83.0568558h-36.341112c-4.023263 0-7.296073-3.2603892-7.296073-7.2683835v-72.16424865c0-1.72032253 1.399596-3.11502147 3.126889-3.11502147 1.726876 0 3.126888 1.39469894 3.126888 3.11502147v72.16424865c0 .573164.467365 1.0383405 1.042296 1.0383405h36.341112c1.727293 0 3.126888 1.394699 3.126888 3.1150215 0 1.7207379-1.399595 3.1150215-3.126888 3.1150215"/><path d="m122.5711 83.1258016h-37.5226589c-1.7268761 0-3.1268882-1.3942836-3.1268882-3.1150215 0-1.7203225 1.4000121-3.1150215 3.1268882-3.1150215h37.5226589c1.727293 0 3.126888 1.394699 3.126888 3.1150215 0 1.7207379-1.399595 3.1150215-3.126888 3.1150215"/><path d="m511.882024 37.094091c-1.620979 0-2.992223-1.2464239-3.114797-2.8832639-.021263-.2861666-.03252-.5748253-.03252-.8576692v-21.5970669c0-6.29815805 5.143523-11.4221607 11.465674-11.4221607h28.350453c1.726876 0 3.126888 1.39469895 3.126888 3.11502147 0 1.72073786-1.400012 3.11502147-3.126888 3.11502147h-28.350453c-2.873819 0-5.211898 2.32920539-5.211898 5.19211776v21.5970669c0 .1329076.00542.2641538.015009.3945694.128411 1.7157538-1.163619 3.2101334-2.885492 3.338057-.078798.0053993-.158012.0083067-.235976.0083067"/><path d="m548.550834 82.9982934h-28.350453c-6.322151 0-11.465674-5.1240027-11.465674-11.4217454v-21.5974822c0-6.2977427 5.143523-11.4217454 11.465674-11.4217454h28.350453c1.726876 0 3.126888 1.3942836 3.126888 3.1150215 0 1.7203225-1.400012 3.1150214-3.126888 3.1150214h-28.350453c-2.873819 0-5.211898 2.3287901-5.211898 5.1917025v21.5974822c0 2.8629124 2.338079 5.1917024 5.211898 5.1917024h28.350453c1.726876 0 3.126888 1.3942836 3.126888 3.1150215s-1.400012 3.1150215-3.126888 3.1150215"/></g></svg>